<svg width="51" height="50" viewBox="0 0 51 50" fill="none" xmlns="http://www.w3.org/2000/svg">
<g clip-path="url(#clip0)">
<g opacity="0.848005" filter="url(#filter0_f)">
<rect x="0.544067" y="24.8344" width="50.0677" height="24.3094" rx="12.1547" fill="#F03E3D"/>
</g>
<rect x="0.544067" y="0.524902" width="50.0677" height="48.6188" rx="19" fill="#F03E3D"/>
<path d="M25.5671 32.6678C25.71 32.6678 25.8529 32.6142 25.96 32.507L31.5225 27.1499C31.6029 27.0695 33.5671 25.2749 33.5671 23.132C33.5671 20.516 31.9689 18.9535 29.2993 18.9535C27.7368 18.9535 26.2725 20.1856 25.5671 20.882C24.8618 20.1856 23.3975 18.9535 21.835 18.9535C19.1654 18.9535 17.5671 20.516 17.5671 23.132C17.5671 25.2749 19.5314 27.0695 19.6029 27.132L25.1743 32.507C25.2814 32.6142 25.4243 32.6678 25.5671 32.6678Z" fill="white"/>
</g>
<defs>
<filter id="filter0_f" x="-26.6388" y="-2.34847" width="104.433" height="78.675" filterUnits="userSpaceOnUse" color-interpolation-filters="sRGB">
<feFlood flood-opacity="0" result="BackgroundImageFix"/>
<feBlend mode="normal" in="SourceGraphic" in2="BackgroundImageFix" result="shape"/>
<feGaussianBlur stdDeviation="13.5914" result="effect1_foregroundBlur"/>
</filter>
<clipPath id="clip0">
<rect width="50.0677" height="48.6188" fill="white" transform="translate(0.544067 0.524902)"/>
</clipPath>
</defs>
</svg>
