<svg width="51" height="50" viewBox="0 0 51 50" fill="none" xmlns="http://www.w3.org/2000/svg">
<g clip-path="url(#clip0)">
<g opacity="0.848005" filter="url(#filter0_f)">
<rect x="0.929443" y="24.8344" width="50.0677" height="24.3094" rx="12.1547" fill="#4DADF7"/>
</g>
<rect x="0.929443" y="0.524902" width="50.0677" height="48.6188" rx="19" fill="#4DADF7"/>
<path d="M31.5253 18.9535H32.3824C32.5431 18.9535 32.6681 18.8285 32.6681 18.6678V18.0963C32.6681 17.9356 32.5431 17.8106 32.3824 17.8106H19.2396C19.0789 17.8106 18.9539 17.9356 18.9539 18.0963V18.6678C18.9539 18.8285 19.0789 18.9535 19.2396 18.9535H20.0967C20.0967 22.257 21.6771 24.6499 23.4271 25.8106C21.6771 26.9713 20.0967 29.3642 20.0967 32.6678H19.2396C19.0789 32.6678 18.9539 32.7928 18.9539 32.9535V33.5249C18.9539 33.6856 19.0789 33.8106 19.2396 33.8106H32.3824C32.5431 33.8106 32.6681 33.6856 32.6681 33.5249V32.9535C32.6681 32.7928 32.5431 32.6678 32.3824 32.6678H31.5253C31.5253 29.3642 29.9449 26.9713 28.1949 25.8106C29.9449 24.6499 31.5253 22.257 31.5253 18.9535ZM30.3824 18.9535C30.3824 20.257 30.0878 21.4088 29.6235 22.382H21.9985C21.5342 21.4088 21.2396 20.257 21.2396 18.9535H30.3824ZM29.8735 29.8106H21.7485C22.4092 28.0874 23.5967 26.8642 24.7842 26.382H26.8378C28.0253 26.8642 29.2128 28.0874 29.8735 29.8106Z" fill="white"/>
</g>
<defs>
<filter id="filter0_f" x="-26.2534" y="-2.34847" width="104.433" height="78.675" filterUnits="userSpaceOnUse" color-interpolation-filters="sRGB">
<feFlood flood-opacity="0" result="BackgroundImageFix"/>
<feBlend mode="normal" in="SourceGraphic" in2="BackgroundImageFix" result="shape"/>
<feGaussianBlur stdDeviation="13.5914" result="effect1_foregroundBlur"/>
</filter>
<clipPath id="clip0">
<rect width="50.0677" height="48.6188" fill="white" transform="translate(0.929443 0.524902)"/>
</clipPath>
</defs>
</svg>
